<svg width="494" height="219" viewBox="0 0 494 219" fill="none" xmlns="http://www.w3.org/2000/svg">
<rect width="494" height="219" fill="white"/>
<path d="M166.241 130V87.0048H174.029V123.471H192.966V130H166.241ZM236.47 108.502C236.47 113.135 235.602 117.103 233.867 120.406C232.145 123.695 229.794 126.214 226.813 127.964C223.846 129.713 220.48 130.588 216.715 130.588C212.95 130.588 209.577 129.713 206.596 127.964C203.629 126.2 201.278 123.674 199.542 120.385C197.821 117.082 196.96 113.121 196.96 108.502C196.96 103.87 197.821 99.909 199.542 96.62C201.278 93.3169 203.629 90.7907 206.596 89.0412C209.577 87.2917 212.95 86.417 216.715 86.417C220.48 86.417 223.846 87.2917 226.813 89.0412C229.794 90.7907 232.145 93.3169 233.867 96.62C235.602 99.909 236.47 103.87 236.47 108.502ZM228.639 108.502C228.639 105.241 228.129 102.491 227.107 100.252C226.099 97.9985 224.7 96.298 222.908 95.1504C221.117 93.9887 219.052 93.4079 216.715 93.4079C214.378 93.4079 212.313 93.9887 210.522 95.1504C208.73 96.298 207.324 97.9985 206.302 100.252C205.294 102.491 204.79 105.241 204.79 108.502C204.79 111.763 205.294 114.521 206.302 116.774C207.324 119.013 208.73 120.714 210.522 121.875C212.313 123.023 214.378 123.597 216.715 123.597C219.052 123.597 221.117 123.023 222.908 121.875C224.7 120.714 226.099 119.013 227.107 116.774C228.129 114.521 228.639 111.763 228.639 108.502ZM272.637 100.735C272.287 99.6011 271.804 98.5864 271.188 97.6906C270.587 96.7809 269.859 96.0041 269.005 95.3603C268.165 94.7165 267.2 94.2337 266.108 93.9118C265.016 93.5759 263.827 93.4079 262.539 93.4079C260.23 93.4079 258.172 93.9887 256.367 95.1504C254.561 96.312 253.141 98.0195 252.105 100.273C251.083 102.512 250.573 105.241 250.573 108.46C250.573 111.707 251.083 114.458 252.105 116.711C253.127 118.964 254.547 120.679 256.367 121.854C258.186 123.016 260.3 123.597 262.707 123.597C264.89 123.597 266.78 123.177 268.375 122.337C269.985 121.498 271.223 120.308 272.091 118.768C272.959 117.215 273.393 115.395 273.393 113.31L275.156 113.583H263.484V107.495H280.93V112.659C280.93 116.34 280.146 119.524 278.578 122.211C277.011 124.899 274.855 126.97 272.112 128.425C269.369 129.867 266.22 130.588 262.665 130.588C258.704 130.588 255.226 129.699 252.231 127.922C249.25 126.13 246.92 123.59 245.24 120.301C243.575 116.998 242.742 113.079 242.742 108.544C242.742 105.073 243.232 101.973 244.211 99.2442C245.205 96.515 246.591 94.1987 248.368 92.2952C250.146 90.3778 252.231 88.9222 254.624 87.9285C257.018 86.9208 259.621 86.417 262.434 86.417C264.813 86.417 267.032 86.7669 269.089 87.4667C271.146 88.1525 272.973 89.1322 274.568 90.4058C276.178 91.6794 277.501 93.191 278.536 94.9405C279.572 96.6899 280.251 98.6214 280.573 100.735H272.637ZM326.88 108.502C326.88 113.135 326.012 117.103 324.276 120.406C322.555 123.695 320.204 126.214 317.222 127.964C314.255 129.713 310.889 130.588 307.124 130.588C303.36 130.588 299.987 129.713 297.006 127.964C294.038 126.2 291.687 123.674 289.952 120.385C288.23 117.082 287.369 113.121 287.369 108.502C287.369 103.87 288.23 99.909 289.952 96.62C291.687 93.3169 294.038 90.7907 297.006 89.0412C299.987 87.2917 303.36 86.417 307.124 86.417C310.889 86.417 314.255 87.2917 317.222 89.0412C320.204 90.7907 322.555 93.3169 324.276 96.62C326.012 99.909 326.88 103.87 326.88 108.502ZM319.049 108.502C319.049 105.241 318.538 102.491 317.516 100.252C316.509 97.9985 315.109 96.298 313.318 95.1504C311.526 93.9887 309.462 93.4079 307.124 93.4079C304.787 93.4079 302.723 93.9887 300.931 95.1504C299.14 96.298 297.733 97.9985 296.712 100.252C295.704 102.491 295.2 105.241 295.2 108.502C295.2 111.763 295.704 114.521 296.712 116.774C297.733 119.013 299.14 120.714 300.931 121.875C302.723 123.023 304.787 123.597 307.124 123.597C309.462 123.597 311.526 123.023 313.318 121.875C315.109 120.714 316.509 119.013 317.516 116.774C318.538 114.521 319.049 111.763 319.049 108.502Z" fill="#0500FF"/>
</svg>
