<svg width="666" height="666" viewBox="0 0 666 666" fill="none" xmlns="http://www.w3.org/2000/svg">
<path d="M337.314 660.972C156.181 663.354 7.41121 518.448 5.02864 337.314C2.64608 156.18 147.553 7.41105 328.686 5.02849C509.82 2.64593 658.589 147.552 660.972 328.686C663.354 509.82 518.448 658.589 337.314 660.972ZM328.899 21.1725C156.681 23.4378 18.9074 164.884 21.1726 337.102C23.4379 509.319 164.884 647.093 337.102 644.828C509.32 642.562 647.093 501.116 644.828 328.898C642.563 156.681 501.116 18.9072 328.899 21.1725Z" fill="url(#paint0_linear_1_7)"/>
<path d="M336.845 576.9C202.49 578.668 92.1405 471.184 90.3732 336.828C88.606 202.473 196.09 92.1234 330.445 90.3561C464.801 88.5888 575.15 196.073 576.918 330.428C578.685 464.784 471.201 575.133 336.845 576.9ZM330.603 102.331C202.861 104.011 100.668 208.929 102.348 336.671C104.028 464.413 208.946 566.606 336.688 564.926C464.43 563.245 566.623 458.328 564.943 330.586C563.263 202.844 458.345 100.651 330.603 102.331Z" fill="url(#paint1_linear_1_7)"/>
<path d="M335.052 489.026C248.882 490.159 178.108 421.223 176.975 335.053C175.841 248.882 244.777 178.108 330.948 176.975C417.118 175.841 487.892 244.777 489.026 330.948C490.159 417.118 421.223 487.892 335.052 489.026ZM331.049 184.655C249.12 185.733 183.577 253.023 184.655 334.951C185.733 416.88 253.023 482.423 334.951 481.345C416.88 480.268 482.423 412.978 481.345 331.049C480.268 249.12 412.978 183.577 331.049 184.655Z" fill="url(#paint2_linear_1_7)"/>
<defs>
<linearGradient id="paint0_linear_1_7" x1="660.972" y1="328.686" x2="5.02864" y2="337.314" gradientUnits="userSpaceOnUse">
<stop stop-color="#050259"/>
<stop offset="1" stop-color="#050259" stop-opacity="0"/>
</linearGradient>
<linearGradient id="paint1_linear_1_7" x1="576.918" y1="330.428" x2="90.3732" y2="336.828" gradientUnits="userSpaceOnUse">
<stop stop-color="#050259"/>
<stop offset="1" stop-color="#050259" stop-opacity="0"/>
</linearGradient>
<linearGradient id="paint2_linear_1_7" x1="489.026" y1="330.948" x2="176.975" y2="335.053" gradientUnits="userSpaceOnUse">
<stop stop-color="#050259"/>
<stop offset="1" stop-color="#050259" stop-opacity="0"/>
</linearGradient>
</defs>
</svg>
